<?xml version="1.0" encoding="UTF-8"?>
<svg width="19px" height="23px" viewBox="0 0 19 23" version="1.1" xmlns="http://www.w3.org/2000/svg" xmlns:xlink="http://www.w3.org/1999/xlink">
    <!-- Generator: Sketch 48 (47235) - http://www.bohemiancoding.com/sketch -->
    <title>Resend icon@2x</title>
    <desc>Created with Sketch.</desc>
    <defs></defs>
    <g id="Step-1-Verification" stroke="none" stroke-width="1" fill="none" fill-rule="evenodd" transform="translate(-643.000000, -431.000000)">
        <path d="M645.674883,442.346341 C645.174883,443.796541 645.075283,450.096341 651.899383,450.846341 C658.799883,451.195941 659.774383,444.671591 659.349633,442.346341 C658.924833,440.022116 656.750133,437.647091 653.450133,437.296591 C653.475523,438.471391 653.450133,439.246791 653.450133,439.822091 C653.424743,440.746891 653.400328,441.222491 652.525333,440.447091 C650.650333,438.897291 646.925833,435.722591 646.925833,435.722591 C646.924856,435.721613 650.599583,432.872091 652.525333,431.322091 C653.425733,430.697091 653.475533,431.022291 653.450133,431.947091 L653.450133,434.472591 C653.450133,434.471613 660.799633,434.497006 661.849633,442.022341 C662.899433,449.547841 656.449133,456.12184 647.924883,452.39734 C641.875133,449.772341 643.025383,442.721591 643.200383,441.697091 C643.575383,439.996891 644.025583,439.996891 644.450383,440.121891 C644.875183,440.246891 644.975783,440.296696 645.375183,440.447091 C645.775583,440.596506 646.200383,440.697091 645.674983,442.346516 L645.674883,442.346341 Z" id="Resend-icon" fill="#54D0FF"></path>
    </g>
</svg>