<?xml version="1.0" encoding="UTF-8"?>
<svg width="70px" height="65px" viewBox="0 0 70 65" version="1.1" xmlns="http://www.w3.org/2000/svg" xmlns:xlink="http://www.w3.org/1999/xlink">
    <!-- Generator: Sketch 48 (47235) - http://www.bohemiancoding.com/sketch -->
    <title>Thankyou_ico@2x</title>
    <desc>Created with Sketch.</desc>
    <defs></defs>
    <g id="Step-1-Verification-Copy" stroke="none" stroke-width="1" fill="none" fill-rule="evenodd" transform="translate(-688.000000, -231.000000)">
        <g id="Thankyou_ico" transform="translate(688.000000, 231.000000)" fill="#54D0FF">
            <path d="M30.8216134,0.0105417351 C28.5185503,0.0728387648 26.2032783,0.382058567 23.9279629,0.966517973 C7.00183682,5.30239124 -3.29146768,22.875817 0.95726745,40.1490843 C5.20600259,57.4223516 22.4018368,67.9267635 39.3279629,63.5908902 C56.2540891,59.255017 66.5462837,41.7065101 62.2975485,24.4332427 C62.1843377,23.4115714 61.2131665,22.7263041 60.2375557,22.9732269 C59.2586152,23.225813 58.7203089,24.30072 59.0976783,25.2566962 C62.9091089,40.7471358 53.7001864,56.4097417 38.5210584,60.2982091 C23.3419305,64.1878091 7.96856835,54.8172031 4.15713772,39.3267635 C0.34570709,23.8363239 9.55462961,8.14766649 24.7337575,4.25806649 C32.8804963,2.16941698 41.5167053,3.90353975 48.3026945,8.9563952 C49.0396747,9.62467243 50.1751125,9.49668035 50.7522656,8.68681896 C51.3327485,7.87695758 51.0985575,6.7318249 50.2528062,6.22212193 C44.5645179,1.98818926 37.7319125,-0.170685988 30.8216134,0.0105417351 Z" id="Page-1"></path>
            <path d="M68.020244,1.68236748 L68.020244,1.68236748 C67.6517539,1.74466451 67.3099017,1.93042292 67.0579521,2.21359124 C58.0699017,11.8107318 43.3247485,28.4066605 34.0203738,38.3979714 L21.0655053,26.7427635 C20.3895702,26.026914 19.258572,26.0574962 18.6159341,26.8050605 C17.9744062,27.5526249 18.0964963,28.7034209 18.8812026,29.2912784 L33.0325539,42.0338526 C33.6996098,42.6273734 34.7062981,42.5786685 35.3211882,41.928514 C44.6078044,32.0130922 60.2375557,14.3852982 69.4509179,4.55029619 C70.5608278,3.38590807 69.5940963,1.4524348 68.020244,1.68236748 Z" id="Path"></path>
        </g>
    </g>
</svg>