<?xml version="1.0" encoding="UTF-8"?>
<svg width="200px" height="44px" viewBox="0 0 200 44" version="1.1" xmlns="http://www.w3.org/2000/svg" xmlns:xlink="http://www.w3.org/1999/xlink">
    <!-- Generator: Sketch 48 (47235) - http://www.bohemiancoding.com/sketch -->
    <title>TrueCare24_logo@2x</title>
    <desc>Created with Sketch.</desc>
    <defs>
        <polygon id="path-1" points="0.000518925615 0.120895522 24.461089 0.120895522 24.461089 25.522365 0.000518925615 25.522365"></polygon>
        <polygon id="path-3" points="19.5553718 19.4684305 19.5553718 0.22395488 0.15397183 0.22395488 0.15397183 19.4684305 19.5553718 19.4684305"></polygon>
        <polygon id="path-5" points="0 0.180671642 0 24.7147388 13.8050954 24.7147388 13.8050954 0.180671642"></polygon>
    </defs>
    <g id="Step-1" stroke="none" stroke-width="1" fill="none" fill-rule="evenodd" transform="translate(-620.000000, -20.000000)">
        <g id="TrueCare24_logo" transform="translate(620.000000, 20.000000)">
            <g id="Group-3" transform="translate(66.273267, 13.104478)">
                <mask id="mask-2" fill="white">
                    <use xlink:href="#path-1"></use>
                </mask>
                <g id="Clip-2"></g>
                <path d="M24.4556512,7.53927985 C22.8263484,7.53927985 21.2368096,7.54532463 19.6472708,7.5288694 C19.5052081,7.52752612 19.3250807,7.41200373 19.2295793,7.2958097 C18.035301,5.84674254 16.5416035,4.88763806 14.6611421,4.58304851 C9.53736886,3.75323507 5.51848998,6.69670522 4.69466229,11.3196157 C3.88137035,15.8837575 7.09375455,20.3840933 11.6608323,21.0879739 C14.3260372,21.4986828 16.6357455,20.7578619 18.5328603,18.8698769 C18.984878,18.4198769 19.4314578,18.2492799 20.0591846,18.2701007 C21.389408,18.3137575 22.7223504,18.2835336 24.0542731,18.2835336 L24.461089,18.2835336 C22.4558978,23.1925634 17.2237084,25.8415187 12.1121702,25.4915933 C5.58340379,25.0446157 0.0480566151,19.7970784 0.000815670977,12.8167052 C-0.0420070554,6.49991418 4.55497863,1.3413694 10.5052984,0.328533582 C17.2328847,-0.816951493 22.4932828,2.94021269 24.4556512,7.53927985" id="Fill-1" fill="#FFFFFF" mask="url(#mask-2)"></path>
            </g>
            <g id="Group-6" transform="translate(124.729687, 19.149254)">
                <mask id="mask-4" fill="white">
                    <use xlink:href="#path-3"></use>
                </mask>
                <g id="Clip-5"></g>
                <path d="M15.1672319,7.94333955 C15.1594151,7.8268097 15.1672319,7.75796642 15.1492192,7.69617537 C14.75056,6.33811567 13.9535815,5.3068097 12.6247175,4.7201306 C11.6357164,4.28356343 10.5875792,4.17039179 9.52278874,4.24225746 C7.49754567,4.37826493 5.79483251,5.29472015 4.95367181,7.47386194 C4.89861402,7.61625 4.86802636,7.7673694 4.81772665,7.94333955 L15.1672319,7.94333955 Z M4.94177661,11.7962127 C5.19701365,12.8637873 5.71870322,13.6972948 6.54389035,14.3461007 C8.38322841,15.7921455 11.5347772,15.8777799 13.3234756,14.5291231 C13.4420878,14.4397948 13.5776931,14.3565112 13.6602798,14.2393097 C14.0378675,13.7066978 14.5517402,13.6072948 15.179467,13.633153 C16.3054328,13.6791604 17.4351371,13.6459142 18.5631421,13.6459142 L19.0518649,13.6459142 C18.6936494,14.7668843 18.1213203,15.6967724 17.3532301,16.5064366 C15.871088,18.0686754 14.0351486,18.9831157 11.9055676,19.3182649 C8.93176714,19.7860634 6.20674635,19.1698321 3.81784997,17.3439739 C1.73652953,15.7528545 0.545310035,13.6361754 0.226518628,11.0406157 C-0.376738033,6.12688433 2.83190768,1.41363806 8.00054278,0.41994403 C13.2969663,-0.598264925 18.2022077,2.42244403 19.3135594,7.8170709 C19.5531627,8.98102612 19.6296319,10.1500187 19.4753341,11.3334515 C19.4321715,11.6649067 19.3431275,11.8072948 18.9573831,11.8059515 C14.4722123,11.7905037 9.98670161,11.7962127 5.50119095,11.7962127 L4.94177661,11.7962127 Z" id="Fill-4" fill="#FFFFFF" mask="url(#mask-4)"></path>
            </g>
            <path d="M102.490472,34.7168085 C104.944282,34.7168085 106.837998,33.4665473 107.590115,31.3246817 C107.937455,30.3350175 108.006447,29.3194951 107.865744,28.2737488 C107.245494,23.6709876 102.365063,22.3955399 99.3440212,24.3691593 C97.2922689,25.7097563 96.5095646,28.430913 97.1175793,30.8051667 C97.7493845,33.2714354 99.7603533,34.7168085 102.490472,34.7168085 M108.085295,22.2984876 L108.085295,19.9097936 L109.7581,19.9097936 C110.383448,19.9097936 111.009816,19.9306145 111.633464,19.9020697 C112.005614,19.8852787 112.122527,19.9950921 112.118788,20.3712115 C112.100436,22.2380399 112.110631,24.1052041 112.110631,25.9720324 L112.110631,37.7381891 L112.110631,38.2795324 L108.09719,38.2795324 L108.09719,35.9912488 C108.050969,35.9670697 108.004408,35.9425548 107.958186,35.9183757 C107.784856,36.1151667 107.622402,36.3230399 107.436157,36.5070697 C106.343838,37.5853906 105.071051,38.3245324 103.525015,38.5810996 C98.9994002,39.3330026 94.2834625,37.1410996 92.8896848,32.1074802 C92.0121587,28.9376667 92.3849883,25.8702787 94.3799836,23.1430772 C95.9617056,20.9810623 98.1636774,19.839607 100.842137,19.5477787 C101.880078,19.434607 102.903745,19.4732264 103.918916,19.6750548 C105.485684,19.9863608 106.739438,20.8144951 107.745432,22.0268085 C107.813745,22.1090847 107.886136,22.1883384 107.958186,22.2675921 C107.965663,22.2756518 107.984016,22.2746444 108.085295,22.2984876" id="Fill-7" fill="#FFFFFF"></path>
            <path d="M115.553389,20.279341 L119.570568,20.279341 L119.570568,21.8902738 C120.18674,21.3496022 120.754311,20.7397514 121.430638,20.2890798 C122.14333,19.8142291 123.01236,19.7930723 123.897363,19.8357216 L123.897363,23.9925126 C123.490887,24.0549753 123.084071,24.085535 122.694248,24.1829231 C120.952791,24.618147 120.099735,25.8227365 120.01273,27.4991544 C119.901255,29.6547888 119.939319,31.818147 119.923686,33.9784828 C119.91349,35.3744903 119.921647,36.7708335 119.921647,38.1671768 L119.921647,38.6242291 L115.553389,38.6242291 L115.553389,20.279341 Z" id="Fill-9" fill="#FFFFFF"></path>
            <path d="M60.2665578,27.1731404 C59.8624608,25.5964613 58.9801767,24.4785136 57.4623489,23.9254165 C56.0009384,23.3928046 54.504522,23.3703046 53.029517,23.8595956 C51.4161878,24.3945583 50.4550555,25.5544837 49.94798,27.1731404 L60.2665578,27.1731404 Z M50.0883434,31.0911628 C50.3333846,32.152021 50.8853219,32.9606777 51.6969146,33.6245956 C53.3075249,34.9423568 57.2298827,35.4313121 59.1674411,33.0842598 C59.24459,32.9905658 59.3832541,32.8898195 59.4937095,32.8888121 C61.0417851,32.8760509 62.5902005,32.8800807 64.1984318,32.8800807 C64.135897,33.0698195 64.0981722,33.2219464 64.0373367,33.3646703 C62.9154493,36.0069091 60.8616577,37.5946703 58.1352775,38.3788121 C53.2256179,39.7912747 47.9944481,37.4499315 46.0103284,32.9798195 C43.4113967,27.1241106 47.3643422,20.2888121 53.7717776,19.5587374 C59.6459681,18.8894464 64.3741409,22.8484389 64.6528285,28.6876927 C64.6847756,29.354633 64.6059274,30.0262747 64.5936923,30.6959016 C64.5875748,31.0330658 64.4254602,31.0988867 64.1083681,31.098215 C59.5949887,31.0878046 55.0819491,31.0911628 50.5685697,31.0911628 L50.0883434,31.0911628 Z" id="Fill-11" fill="#FFFFFF"></path>
            <path d="M37.9638304,19.8208955 L42.409917,19.8208955 L42.409917,38.2359701 L38.31185,38.2359701 L38.31185,36.4876866 C38.123566,36.6522388 38.0131105,36.7385448 37.9145503,36.8362687 C35.4617597,39.2676119 31.4809455,38.9536194 29.4658983,37.9518657 C28.0860549,37.2657836 27.2047904,36.1431343 26.6440166,34.7474627 C26.0689685,33.316194 25.8579137,31.8150746 25.8456786,30.2931343 C25.8184896,26.8822015 25.8341232,23.4709328 25.8334435,20.0596642 C25.8334435,19.9938433 25.84228,19.9280224 25.8490772,19.8343284 L30.3141961,19.8343284 L30.3141961,20.2823134 C30.3148758,23.2499627 30.2890462,26.2182836 30.3311892,29.1859328 C30.3451236,30.171903 30.4447035,31.1753358 30.6618759,32.1361194 C31.0894234,34.0284701 32.176305,34.7817164 34.2878732,34.5939925 C36.3827882,34.4076119 37.6161507,33.1623881 37.8166698,31.0893657 C37.9080929,30.1420149 37.9509156,29.1869403 37.957373,28.2352239 C37.9757256,25.5896269 37.9638304,22.9440299 37.9638304,20.298097 L37.9638304,19.8208955" id="Fill-13" fill="#FFFFFF"></path>
            <g id="Group-17" transform="translate(0.000000, 13.776119)">
                <mask id="mask-6" fill="white">
                    <use xlink:href="#path-5"></use>
                </mask>
                <g id="Clip-16"></g>
                <polygon id="Fill-15" fill="#FFFFFF" mask="url(#mask-6)" points="4.59617002 24.7147388 4.59617002 4.51074627 -0.000135945163 4.51074627 -0.000135945163 0.180671642 13.8050954 0.180671642 13.8050954 4.48992537 9.2115083 4.48992537 9.2115083 24.7147388"></polygon>
            </g>
            <path d="M14.9539679,20.2612112 L19.0030946,20.2612112 L19.0030946,21.9013604 C19.0296039,21.926547 19.0564531,21.9517336 19.0829624,21.977256 C20.0852181,20.3962112 21.4854533,19.6382634 23.3829079,19.8582261 L23.3829079,24.0543082 C23.077711,24.092256 22.78271,24.1164351 22.4921272,24.1668082 C20.7527089,24.4677037 19.7439958,25.4822187 19.4969154,27.2039724 C19.4306422,27.6667336 19.4048126,28.1388978 19.403793,28.6070321 C19.3956363,31.7889351 19.3993748,34.9705022 19.3993748,38.1520694 L19.3993748,38.659159 L14.9539679,38.659159 L14.9539679,20.2612112 Z" id="Fill-18" fill="#FFFFFF"></path>
            <g id="Group-27" transform="translate(146.480913, 0.000000)">
                <path d="M48.2605329,11.5750945 L48.2605329,9.07462687 L45.2017667,9.07462687 L45.2017667,11.5750945 L42.7012991,11.5750945 L42.7012991,14.6338607 L45.2017667,14.6338607 L45.2017667,17.1343284 L48.2605329,17.1343284 L48.2605329,14.6338607 L50.7610005,14.6338607 L50.7610005,11.5750945 L48.2605329,11.5750945 Z M0,11.0656544 C0,8.85322768 1.78290162,7.05970149 4.00270565,7.05970149 L48.676045,7.05970149 C50.8866783,7.05970149 52.6787507,8.84140887 52.6787507,11.0656544 L52.6787507,39.9940471 C52.6787507,42.2064738 50.8958491,44 48.676045,44 L4.00270565,44 C1.79207236,44 0,42.2182926 0,39.9940471 L0,11.0656544 Z M8.15670978,20.6712092 L8.15670978,20.7554582 L12.4554632,20.7554582 L12.4554632,20.6543594 C12.4554632,18.4133371 14.1289065,17.1369289 16.2782832,17.1369289 C18.3048384,17.1369289 19.5484064,18.2448392 19.5484064,20.199415 C19.5484064,21.7832955 18.7654191,23.0470299 15.6488229,26.3832887 L8.41770553,34.1510429 L8.41770553,37.706349 L24.3998566,37.706349 L24.3998566,33.4770512 L14.6969561,33.4770512 L14.6969561,33.173755 L18.9342987,28.7422596 C22.7724714,24.7825585 24.0774501,22.5078366 24.0774501,19.8624192 C24.0774501,15.6836708 20.8533851,12.7686567 16.2322251,12.7686567 C11.4421856,12.7686567 8.15670978,15.9701172 8.15670978,20.6712092 Z M40.8554142,33.4122952 L43.5024522,33.4122952 L43.5024522,29.0869614 L40.8554142,29.0869614 L40.8554142,12.7686567 L36.3554496,12.7686567 L25.829581,28.7652424 L25.829581,33.4122952 L36.6512951,33.4122952 L36.6512951,37.5052764 L40.8554142,37.5052764 L40.8554142,33.4122952 Z" id="Combined-Shape" fill="#FFFFFF"></path>
                <path d="M31.9471133,10.0617718 L31.9471133,3.68816326 C31.9471133,3.13499701 31.5082406,2.68656716 30.9418671,2.68656716 L21.3970207,2.68656716 C20.8418385,2.68656716 20.3917745,3.13155965 20.3917745,3.68816326 L20.3917745,10.0618707 C18.8593207,9.92148375 17.6728712,8.63968698 17.6728712,7.07918363 L17.6728712,2.99544324 C17.6728712,1.33783266 19.0155319,-1.77635684e-15 20.6717877,-1.77635684e-15 L31.6671,-1.77635684e-15 C33.332593,-1.77635684e-15 34.6660166,1.34110562 34.6660166,2.99544324 L34.6660166,7.07918363 C34.6660166,8.64229649 33.4720782,9.92105222 31.9471133,10.0617718 Z" id="Combined-Shape" fill="#FFFFFF"></path>
                <g id="Group-26" transform="translate(29.482863, 9.074627)">
                    <g id="Group-21" transform="translate(13.000000, 0.000000)"></g>
                    <polygon id="4" fill="#FFFFFF" points="7.16843161 10.3071435 0.628690724 20.0123346 7.16843161 20.0123346"></polygon>
                </g>
                <g id="Page-1" transform="translate(8.156710, 12.768657)"></g>
            </g>
        </g>
    </g>
</svg>